<?xml version="1.0" encoding="UTF-8" standalone="no"?>
<!DOCTYPE svg PUBLIC "-//W3C//DTD SVG 1.1//EN" "http://www.w3.org/Graphics/SVG/1.1/DTD/svg11.dtd">
<svg width="100%" height="100%" viewBox="0 0 4167 4167" version="1.1" xmlns="http://www.w3.org/2000/svg" xmlns:xlink="http://www.w3.org/1999/xlink" xml:space="preserve" xmlns:serif="http://www.serif.com/" style="fill-rule:evenodd;clip-rule:evenodd;stroke-linecap:round;stroke-linejoin:round;">
    <g id="lifeline-p-v2" transform="matrix(4.166667,0,0,4.166667,-266.666667,66.666667)">
        <path d="M330,850L330,266C330,200 384,146 450,146L588,146C724,146 826,246 826,382C826,518 724,618 588,618L500,618C430,618 435.276,555.225 435.276,487.225C435.276,419.225 430,370 500,370L711.923,371.694" style="fill:none;fill-rule:nonzero;stroke:rgb(181,154,246);stroke-width:54px;"/>
        <circle cx="330" cy="584" r="28" style="fill:rgb(248,246,252);stroke:rgb(181,154,246);stroke-width:18px;stroke-linecap:butt;stroke-linejoin:miter;"/>
        <g transform="matrix(1,0,0,1,99.923119,1.693651)">
            <circle cx="612" cy="370" r="28" style="fill:rgb(248,246,252);stroke:rgb(181,154,246);stroke-width:18px;stroke-linecap:butt;stroke-linejoin:miter;"/>
        </g>
        <circle cx="512" cy="146" r="28" style="fill:rgb(248,246,252);stroke:rgb(181,154,246);stroke-width:18px;stroke-linecap:butt;stroke-linejoin:miter;"/>
    </g>
</svg>
