<?xml version="1.0" encoding="UTF-8" standalone="no"?>
<!DOCTYPE svg PUBLIC "-//W3C//DTD SVG 1.1//EN" "http://www.w3.org/Graphics/SVG/1.1/DTD/svg11.dtd">
<svg width="100%" height="100%" viewBox="0 0 4167 4167" version="1.1" xmlns="http://www.w3.org/2000/svg" xmlns:xlink="http://www.w3.org/1999/xlink" xml:space="preserve" xmlns:serif="http://www.serif.com/" style="fill-rule:evenodd;clip-rule:evenodd;stroke-linecap:round;stroke-linejoin:round;">
    <g id="shield-p-thread-v2" transform="matrix(4.166667,0,0,4.166667,-50,-129.166667)">
        <path d="M514.307,146C634.307,176 736,198 808,248L808,502C808,682 692,826 512,908C332,826 216,682 216,502L216,248C288,198 394.307,176 514.307,146Z" style="fill:none;fill-rule:nonzero;stroke:rgb(181,154,246);stroke-width:54px;"/>
        <path d="M274,660C326,660 342.289,608 342.289,556L343.983,371.694C343.983,309.694 416,248 478,248L582,248C684,248 720.741,322.919 720.741,420.919C720.741,518.919 684,592 582,592L512,592L512,888" style="fill:none;fill-rule:nonzero;stroke:rgb(181,154,246);stroke-width:54px;"/>
        <circle cx="274" cy="660" r="28" style="fill:rgb(248,246,252);stroke:rgb(181,154,246);stroke-width:18px;stroke-linecap:butt;stroke-linejoin:miter;"/>
        <g transform="matrix(1,0,0,1,208.740503,-171.080771)">
            <circle cx="512" cy="592" r="28" style="fill:rgb(248,246,252);stroke:rgb(181,154,246);stroke-width:18px;stroke-linecap:butt;stroke-linejoin:miter;"/>
        </g>
        <g transform="matrix(1,0,0,1,2.30653,142)">
            <circle cx="512" cy="746" r="28" style="fill:rgb(248,246,252);stroke:rgb(181,154,246);stroke-width:18px;stroke-linecap:butt;stroke-linejoin:miter;"/>
        </g>
    </g>
</svg>
